# xmcd
#
# Track frame offsets:
#	150
#	10665
#	20167
#	31415
#	42947
#	52895
#	63342
#	73865
#	84305
#	98767
#	113647
#	126795
#	139275
#	152927
#
# Disc length: 2177 seconds
#
# Revision: 1
# Processed by: cddbd v1.5.2PL0 Copyright (c) Steve Scherf et al.
# Submitted via: audiograbber 1.83.01
#
DISCID=b7087f0e
DTITLE=The Traits - COL 0668
DYEAR=1995
DGENRE=
TTITLE0=Live It Up
TTITLE1=Yes I Do
TTITLE2=Don't Be Blue
TTITLE3=One More Time (Local Version)
TTITLE4=Summertime Love
TTITLE5=Night Time Blues
TTITLE6=Walking All Day
TTITLE7=One More Time (Hit Version)
TTITLE8=with Dean Scott - Harlem Shuffle
TTITLE9=with Dean Scott - Somewhere
TTITLE10=with Dean Scott - You're Too Good To Be True
TTITLE11=with Dean Scott - Untitled Soul/Blues Instrumental
TTITLE12=with Johnny Winter - Tramp
TTITLE13=with Johnny Winter - Parchment Prison Farm (Original Version)
EXTD=
EXTT0=
EXTT1=
EXTT2=
EXTT3=
EXTT4=
EXTT5=
EXTT6=
EXTT7=
EXTT8=
EXTT9=
EXTT10=
EXTT11=
EXTT12=
EXTT13=
PLAYORDER=
